<svg width="141.732" height="141.732" xmlns="http://www.w3.org/2000/svg">

 <g>
  <title>background</title>
  <rect fill="none" id="canvas_background" height="402" width="582" y="-1" x="-1"/>
 </g>
 <g>
  <title>Layer 1</title>
  <path fill="#00cec9" stroke-dasharray="5,5" id="svg_1" d="m55.77,82.299l-19.692,0l0,9.861l1.693,0l0,49.582l16.433,0l0,-49.586l1.566,0l0,-9.857l0,0zm3.804,-36.828c0,-0.048 -0.005,-0.086 -0.005,-0.134l0.005,0l0,-42.602c0,-1.505 -1.22,-2.726 -2.724,-2.726c-1.503,0 -2.724,1.22 -2.724,2.726l0,22.442l0,9.723l0,1.084c-0.25,1.243 -1.351,2.185 -2.672,2.185c-1.504,0 -2.724,-1.22 -2.724,-2.723l0,-14.807l0,-17.904c-0.003,-1.506 -1.236,-2.727 -2.756,-2.727s-2.752,1.22 -2.752,2.726l0,17.88l0,14.826c0,1.503 -1.22,2.724 -2.725,2.724c-1.502,0 -2.723,-1.218 -2.723,-2.724l0,-32.689l-0.011,0c0.002,-0.038 0.009,-0.071 0.009,-0.109c0,-1.456 -1.223,-2.634 -2.729,-2.634c-1.505,0 -2.726,1.178 -2.726,2.632c0,0.038 0.004,0.071 0.006,0.109l-0.006,0l0,42.585l0.004,0c0,0.05 -0.004,0.089 -0.004,0.137c0,10.657 3.541,19.768 8.547,23.52l0,12.851l10.12,0l0,-12.822c5.031,-3.73 8.59,-12.86 8.59,-23.549m38.158,55.385l0,-57.107l0,-43.74c-9.45,2.773 -16.352,11.515 -16.352,21.874c0,0.021 0.002,0.044 0.003,0.064l-0.003,0l0,78.91l-2.262,0l0,10.904l2.262,0l0,29.979l16.352,0l0,-29.983l2.125,0l0,-10.901l-2.125,0z"/>
 </g>
</svg>